<?xml version="1.0" encoding="UTF-8"?>
<!DOCTYPE svg PUBLIC "-//W3C//DTD SVG 1.1//EN" "http://www.w3.org/Graphics/SVG/1.1/DTD/svg11.dtd">
<!-- Creator: CorelDRAW 2021.5 -->
<svg xmlns="http://www.w3.org/2000/svg" xml:space="preserve" width="100%" height="100%" version="1.1" style="shape-rendering:geometricPrecision; text-rendering:geometricPrecision; image-rendering:optimizeQuality; fill-rule:evenodd; clip-rule:evenodd"
viewBox="0 0 558967.1 754003.4"
 xmlns:xlink="http://www.w3.org/1999/xlink"
 xmlns:xodm="http://www.corel.com/coreldraw/odm/2003">
 <defs>
  <style type="text/css">
   <![CDATA[
    .fil0 {fill:none}
    .fil6 {fill:#008D37}
    .fil5 {fill:#E5261E}
    .fil1 {fill:white}
    .fil2 {fill:#234D9A;fill-rule:nonzero}
    .fil4 {fill:#F2D314;fill-rule:nonzero}
    .fil3 {fill:#FCEA16;fill-rule:nonzero}
   ]]>
  </style>
 </defs>
 <g id="Livello_x0020_1">
  <metadata id="CorelCorpID_0Corel-Layer"/>
  <rect class="fil0" y="0.8" width="558967.1" height="754003.4"/>
  <g id="_2877827351344">
   <path class="fil1" d="M558967 377002c0,154352.8 -125131.2,279483.2 -279483.8,279483.2 -154351.5,0 -279483.2,-125131.5 -279483.2,-279483.2 0,-154351.6 125131.6,-279483.8 279483.2,-279483.8 154352.7,0 279483.8,125131.1 279483.8,279483.8z"/>
   <path class="fil2" d="M550967 377001.9c0,149937.3 -121546.5,271483.3 -271483.7,271483.3 -149935.2,0 -271483.3,-121546 -271483.3,-271483.3 0,-149937.2 121548.1,-271483.7 271483.3,-271483.7 149937.2,0 271483.7,121546.5 271483.7,271483.7z"/>
   <path class="fil3" d="M540395.5 377001.9c0,144098.8 -116813.5,260911.8 -260912.2,260911.8 -144096.7,0 -260911.8,-116813 -260911.8,-260911.8 0,-144098.7 116815.1,-260912.2 260911.8,-260912.2 144098.7,0 260912.2,116813.5 260912.2,260912.2z"/>
   <path class="fil4" d="M253516.2 498889.9c115490.9,-4497.9 210298.5,17568.3 211752.4,49269.2 732.6,15975.8 -22361.8,31351.1 -60218.3,43247.3 -5917.5,2338.3 -12352.5,4571.8 -19250.8,6682.3 -2,1 -4.6,1.5 -7.1,2.5 -7246.5,2954 -15279.2,5751.6 -24003.1,8356.8 28539.8,-11262.7 45499.7,-24907.8 44963.7,-38932.2 -1199.5,-31456.4 -89949.4,-52900.8 -198236.3,-47890.4 -48763.8,2258.3 -93171,9496 -127149.1,19643.8 44678,-23299.7 122387.1,-38442 172148.6,-40379.3z"/>
   <path class="fil2" d="M399847.9 478328.2l20533.1 -27360.7 -19674.8 -25758.7 18388.8 0 10076.2 14605.4 10618.3 -14605.4 17692.5 0 -19301.9 25157.6 21069.6 27961.8 -18495.6 0 -11582.9 -16453.8 -11684 16453.8 -17639.3 0zm-160469.3 -31110.3c-106.3,-4068.2 -1232.8,-7160.5 -3377.1,-9278.7 -2144.3,-2118.8 -4755.3,-3177.1 -7827.2,-3177.1 -3289.1,0 -6004.8,1119.2 -8149.1,3353.1 -2144.3,2232.9 -3199,5267.8 -3164.1,9102.7l22517.5 0zm-856.3 14204.9l15010.1 2352.1c-1929.2,5135.5 -4977.7,9047.5 -9139.2,11729.9 -4165.6,2682.8 -9376.6,4024 -15629.3,4024 -9901.7,0 -17227.3,-3017.2 -21982.6,-9052.7 -3752.1,-4834.5 -5628.2,-10936.6 -5628.2,-18306.5 0,-8802.7 2466.2,-15698.7 7399.6,-20683.6 4931.3,-4982.9 11167.8,-7478.3 18710.1,-7478.3 8470.4,0 15153.3,2611 20049.7,7827.2 4897,5220.4 7239.7,13214.8 7024.6,23985.8l-37742.1 0c106.2,4169.3 1319.2,7412 3645.3,9729.3 2322.4,2318.7 5216.2,3476 8683.5,3476 2359.4,0 4343.8,-600.5 5951.6,-1800.5 1609.4,-1201.6 2824,-3132.9 3646.9,-5802.7zm36707.3 16905.4l-18013.8 -53119.4 14636.7 0 10669.9 34813.5 9811.6 -34813.5 14528.3 0 9490.2 34813.5 10883 -34813.5 14851.7 0 -18282 53119.4 -14475.2 0 -9813.6 -34160.8 -9650.2 34160.8 -14636.6 0zm108622.2 -31110.3c-108.3,-4068.2 -1234.4,-7160.5 -3378.7,-9278.7 -2142.7,-2118.8 -4753.7,-3177.1 -7827.7,-3177.1 -3288.5,0 -6002.6,1119.2 -8148.5,3353.1 -2144.3,2232.9 -3199,5267.8 -3162.5,9102.7l22517.4 0zm-857.8 14204.9l15009.6 2352.1c-1929.2,5135.5 -4977.7,9047.5 -9139.2,11729.9 -4165.2,2682.8 -9374.6,4024 -15628.9,4024 -9900.1,0 -17229.3,-3017.2 -21979.4,-9052.7 -3755.3,-4834.5 -5631.3,-10936.6 -5631.3,-18306.5 0,-8802.7 2465.6,-15698.7 7399,-20683.6 4931.9,-4982.9 11170,-7478.3 18710.7,-7478.3 8472,0 15152.8,2611 20049.7,7827.2 4896.4,5220.4 7241.3,13214.8 7026.2,23985.8l-37745.8 0c108.3,4169.3 1320.8,7412 3645.3,9729.3 2324,2318.7 5219.9,3476 8687.1,3476 2357.3,0 4341.7,-600.5 5951.6,-1800.5 1607.4,-1201.6 2822,-3132.9 3645.4,-5802.7z"/>
   <path class="fil4" d="M201884.2 394084.9c9411.1,-10579.9 17097.1,-19221.1 25009.2,-28116 30916.1,25864.9 65907.7,23945.1 100623.7,16481.4 30480.6,-6554.2 49652.2,-27000.8 54137.2,-58304.9 2258.4,-15773.6 3316.7,-32431.7 832.3,-48040.7 -7099.6,-44612.1 -39849.5,-69656.2 -91383.5,-72164 -31641.5,-1541.7 -60623.2,4286.5 -80599.5,31983.7 -10364.7,14370.6 -15805.4,30467.6 -15752.3,48485.6l71.9 202300.5 -92671.5 47.4c-7930.3,75.6 -11147.6,-2239.6 -11109,-10717.3 275.5,-61400.8 -854.7,-122825.6 534.4,-184196.7 763,-33725.4 19316.9,-59320.5 46552.7,-78200 27425.3,-19011.7 58558.5,-28363.9 91414.7,-32222.8 54797.1,-6438.1 109315,-5776.6 162300,11344.5 39930.8,12900.1 70145.2,36759.3 80488.1,80094.2 12200.1,51103.8 -6537.6,92151.8 -53360.1,115870.8 -25268,12801.2 -52524.6,18905 -80429.2,21571.1 -39309.3,3755.8 -78609.9,4722 -116829.6,-8090.2 -5876.1,-1969.8 -11502.3,-4687 -19829.5,-8126.6z"/>
   <path class="fil2" d="M193884.2 386084.9c9411.1,-10579.9 17097.1,-19221.1 25009.2,-28116 30916.1,25864.9 65907.7,23945.1 100623.7,16481.4 30480.6,-6554.2 49652.2,-27000.8 54137.2,-58304.9 2258.4,-15773.6 3316.7,-32431.7 832.3,-48040.7 -7099.6,-44612.1 -39849.5,-69656.2 -91383.5,-72164 -31641.5,-1541.7 -60623.2,4286.5 -80599.5,31983.7 -10364.7,14370.6 -15805.4,30467.6 -15752.3,48485.6l71.9 202300.5 -92671.5 47.4c-7930.3,75.6 -11147.6,-2239.6 -11109,-10717.3 275.5,-61400.8 -854.7,-122825.6 534.4,-184196.7 763,-33725.4 19316.9,-59320.5 46552.7,-78200 27425.3,-19011.7 58558.5,-28363.9 91414.7,-32222.8 54797.1,-6438.1 109315,-5776.6 162300,11344.5 39930.8,12900.1 70145.2,36759.3 80488.1,80094.2 12200.1,51103.8 -6537.6,92151.8 -53360.1,115870.8 -25268,12801.2 -52524.6,18905 -80429.2,21571.1 -39309.3,3755.8 -78609.9,4722 -116829.6,-8090.2 -5876.1,-1969.8 -11502.3,-4687 -19829.5,-8126.6z"/>
   <path class="fil1" d="M252511.1 490906.5c117499.9,-4626.6 213956.9,18071.1 215436.1,50679.3 745.3,16433.1 -22750.8,32248.4 -61265.9,44485 -6020.4,2405.2 -12567.4,4702.7 -19585.7,6873.5 -2.1,1.1 -4.7,1.6 -7.3,2.6 -7372.5,3038.6 -15545,5916.3 -24420.6,8596 29036.3,-11585.1 46291.2,-25620.7 45745.9,-40046.4 -1220.3,-32356.7 -91514.2,-54414.8 -201684.9,-49261 -49612.1,2322.9 -94791.9,9767.8 -129361.1,20206 45455.3,-23966.5 124516.2,-39542.2 175143.5,-41535z"/>
   <path class="fil5" d="M252511.1 490906.5c117499.9,-4626.6 213956.9,18071.1 215436.1,50679.3 745.3,16433.1 -22750.8,32248.4 -61265.9,44485 28072.8,-11215.8 44690.7,-24775.8 44174.5,-38769.8 -1159.4,-31528.5 -88883.4,-53505.4 -196903.6,-49655.3 -8219.4,143.7 -16571,432.8 -25035.7,886.5 -16662.2,892.7 -33272.9,3045.3 -49364.7,5906.3 -29780.6,4514.1 -56083.1,10909 -76957.3,18524.2 -5431.3,1547.4 -19432.5,7694.9 -24811.3,9354.3l-415.6 124.5c2467.8,-984.4 4973,-2245.4 7516.8,-3742.8 46254.8,-21837.8 119685.9,-35905.2 167626.7,-37792.2z"/>
   <path class="fil6" d="M142858.1 514340.7c-25354,4789.1 -47648.1,10981.9 -65490.5,18100.8 34569.2,-10438.2 79749,-17883.1 129361.1,-20206 110170.7,-5153.8 200464.6,16904.3 201684.9,49261 545.3,14425.7 -16709.6,28461.3 -45745.9,40046.4 8878.8,-2680.8 17053.9,-5559.5 24427.9,-8599.1 -1382.8,427.6 -2781.3,850.5 -4200,1268.3 29047.7,-11338.7 46323,-25143.1 45799.5,-39406.8 -1178.1,-31985.8 -91435,-54139.3 -201594.8,-49474.1 -30184.2,1278.7 -58727.8,4438.1 -84242.2,9009.5z"/>
  </g>
 </g>
</svg>
